# xmcd CD database file
#
# Track frame offsets:
#	150
#	20044
#	38916
#	53982
#	71623
#	88102
#	111940
#	126142
#	148882
#	185660
#
# Disc length: 2643 seconds
#
# Revision: 1
# Processed by: cddbd v1.5.2PL0 Copyright (c) Steve Scherf et al.
# Submitted via: CDex 1.70beta2
#
DISCID=980a510a
DTITLE=Graham Nash - Songs for survivors (DTS)
DYEAR=1900
DGENRE=Rock
TTITLE0=01 Dirty little secret
TTITLE1=02 Blizzard of lies
TTITLE2=03 Lost Another one
TTITLE3=04 The chelsea hotel
TTITLE4=05 I'll be there for you
TTITLE5=06 Nothing in the world
TTITLE6=07 Where love lies tonight
TTITLE7=08 Pavanne
TTITLE8=09 Liar's Nightmare
TTITLE9=10 Come with me
EXTD=
EXTT0=
EXTT1=
EXTT2=
EXTT3=
EXTT4=
EXTT5=
EXTT6=
EXTT7=
EXTT8=
EXTT9=
PLAYORDER=
